<svg version="1.1" id="Layer_1" xmlns="http://www.w3.org/2000/svg" xmlns:xlink="http://www.w3.org/1999/xlink" x="0px" y="0px"
	 width="100%" viewBox="0 0 301 314" enable-background="new 0 0 301 314" xml:space="preserve">
<path fill="#000000" opacity="1.000000" stroke="none" 
	d="
M1.000000,80.000000 
	C1.000000,53.333340 1.000000,27.166683 1.000000,1.000018 
	C101.333290,1.000012 201.666580,1.000012 301.999908,1.000006 
	C301.999939,105.666595 301.999939,210.333191 301.999969,314.999817 
	C201.666763,314.999878 101.333534,314.999878 1.000148,314.999939 
	C1.000000,236.833328 1.000000,158.666672 1.000000,80.000000 
M289.994080,104.518433 
	C293.318329,74.718384 291.971527,44.901665 291.521729,15.644699 
	C197.594772,-0.278588 104.900803,-0.361975 12.244737,15.513065 
	C11.828377,19.254007 10.989452,22.986565 11.066852,26.700022 
	C11.669576,55.617340 9.031375,84.636330 13.946379,113.426163 
	C15.611022,123.176880 15.934685,133.202042 18.170668,142.799011 
	C21.508621,157.125671 25.422424,171.381622 30.197065,185.287979 
	C33.429035,194.701248 38.602150,203.442917 42.832764,212.519608 
	C49.573902,226.982544 58.868237,239.787033 69.345886,251.631622 
	C77.412086,260.750122 86.203804,269.285461 95.201698,277.501007 
	C101.426483,283.184509 108.301025,288.260010 115.337158,292.925659 
	C124.578720,299.053741 134.183807,304.651825 143.795715,310.194855 
	C148.159302,312.711304 152.731049,314.424591 157.750519,310.793854 
	C160.824387,308.570404 164.663788,307.440460 167.968964,305.495819 
	C186.927841,294.341248 204.697357,281.620453 220.293442,265.974976 
	C235.524033,250.696136 248.930038,233.992691 258.878967,214.846664 
	C265.180023,202.720718 270.568024,190.081375 275.702942,177.403915 
	C278.508698,170.476868 280.163513,163.045853 281.913208,155.740509 
	C283.375916,149.633453 284.343384,143.397659 285.313995,137.185104 
	C286.963623,126.626472 288.443268,116.041275 289.994080,104.518433 
z"/>
<path fill="#FEFEFE" opacity="1.000000" stroke="none" 
	d="
M289.994202,104.992836 
	C288.443268,116.041275 286.963623,126.626472 285.313995,137.185104 
	C284.343384,143.397659 283.375916,149.633453 281.913208,155.740509 
	C280.163513,163.045853 278.508698,170.476868 275.702942,177.403915 
	C270.568024,190.081375 265.180023,202.720718 258.878967,214.846664 
	C248.930038,233.992691 235.524033,250.696136 220.293442,265.974976 
	C204.697357,281.620453 186.927841,294.341248 167.968964,305.495819 
	C164.663788,307.440460 160.824387,308.570404 157.750519,310.793854 
	C152.731049,314.424591 148.159302,312.711304 143.795715,310.194855 
	C134.183807,304.651825 124.578720,299.053741 115.337158,292.925659 
	C108.301025,288.260010 101.426483,283.184509 95.201698,277.501007 
	C86.203804,269.285461 77.412086,260.750122 69.345886,251.631622 
	C58.868237,239.787033 49.573902,226.982544 42.832764,212.519608 
	C38.602150,203.442917 33.429035,194.701248 30.197065,185.287979 
	C25.422424,171.381622 21.508621,157.125671 18.170668,142.799011 
	C15.934685,133.202042 15.611022,123.176880 13.946379,113.426163 
	C9.031375,84.636330 11.669576,55.617340 11.066852,26.700022 
	C10.989452,22.986565 11.828377,19.254007 12.244737,15.513065 
	C104.900803,-0.361975 197.594772,-0.278588 291.521729,15.644699 
	C291.971527,44.901665 293.318329,74.718384 289.994202,104.992836 
M280.006958,130.464249 
	C281.670746,116.228889 284.223419,102.028633 284.787415,87.749832 
	C285.608826,66.955391 285.055206,46.103905 284.874481,25.278591 
	C284.862122,23.855549 283.312988,21.532907 282.060944,21.200172 
	C277.856659,20.082897 273.479462,19.539917 269.138977,19.026249 
	C257.167694,17.609533 245.196640,16.159187 233.197342,15.018390 
	C217.548111,13.530590 201.893051,11.678067 186.201813,11.164148 
	C165.896866,10.499121 145.544128,10.612993 125.229942,11.116886 
	C107.803337,11.549153 90.398926,12.951573 72.991508,14.034455 
	C67.939003,14.348763 62.891075,14.901974 57.874111,15.587582 
	C47.753769,16.970610 37.694614,18.946653 27.536688,19.862637 
	C19.657011,20.573183 17.922287,22.095518 18.010168,29.869926 
	C18.362787,61.064747 16.409061,92.370399 22.037773,123.324127 
	C24.485628,136.785522 26.647079,150.356934 30.164736,163.551483 
	C34.775883,180.847656 41.075836,197.716583 50.652363,212.930359 
	C58.235550,224.977448 66.397728,236.799210 75.531143,247.690979 
	C84.106361,257.917053 93.796402,267.364532 103.895500,276.116547 
	C116.280113,286.849152 130.548706,295.009949 144.787979,303.146301 
	C149.678452,305.940765 153.488937,306.055359 157.948181,303.055389 
	C160.179703,301.554169 162.860626,300.733429 165.149155,299.302429 
	C178.386841,291.025116 191.404129,282.516754 203.384949,272.351135 
	C216.571960,261.162048 228.131226,248.510529 238.414032,234.823318 
	C248.722733,221.101669 257.125854,206.013672 263.391998,189.975555 
	C267.505859,179.446136 270.844604,168.581375 273.952454,157.701691 
	C276.423706,149.050598 278.019196,140.149323 280.006958,130.464249 
z"/>
<path fill="#000000" opacity="1.000000" stroke="none" 
	d="
M280.005249,130.911682 
	C278.019196,140.149323 276.423706,149.050598 273.952454,157.701691 
	C270.844604,168.581375 267.505859,179.446136 263.391998,189.975555 
	C257.125854,206.013672 248.722733,221.101669 238.414032,234.823318 
	C228.131226,248.510529 216.571960,261.162048 203.384949,272.351135 
	C191.404129,282.516754 178.386841,291.025116 165.149155,299.302429 
	C162.860626,300.733429 160.179703,301.554169 157.948181,303.055389 
	C153.488937,306.055359 149.678452,305.940765 144.787979,303.146301 
	C130.548706,295.009949 116.280113,286.849152 103.895500,276.116547 
	C93.796402,267.364532 84.106361,257.917053 75.531143,247.690979 
	C66.397728,236.799210 58.235550,224.977448 50.652363,212.930359 
	C41.075836,197.716583 34.775883,180.847656 30.164736,163.551483 
	C26.647079,150.356934 24.485628,136.785522 22.037773,123.324127 
	C16.409061,92.370399 18.362787,61.064747 18.010168,29.869926 
	C17.922287,22.095518 19.657011,20.573183 27.536688,19.862637 
	C37.694614,18.946653 47.753769,16.970610 57.874111,15.587582 
	C62.891075,14.901974 67.939003,14.348763 72.991508,14.034455 
	C90.398926,12.951573 107.803337,11.549153 125.229942,11.116886 
	C145.544128,10.612993 165.896866,10.499121 186.201813,11.164148 
	C201.893051,11.678067 217.548111,13.530590 233.197342,15.018390 
	C245.196640,16.159187 257.167694,17.609533 269.138977,19.026249 
	C273.479462,19.539917 277.856659,20.082897 282.060944,21.200172 
	C283.312988,21.532907 284.862122,23.855549 284.874481,25.278591 
	C285.055206,46.103905 285.608826,66.955391 284.787415,87.749832 
	C284.223419,102.028633 281.670746,116.228889 280.005249,130.911682 
M94.019073,116.526093 
	C95.955948,115.440979 99.637802,115.892456 98.302879,111.922882 
	C98.035530,111.127884 96.500824,109.948395 96.191071,110.117775 
	C94.802948,110.876755 93.117775,111.842850 92.579048,113.159447 
	C92.172752,114.152405 93.341011,115.789642 93.588882,117.875221 
	C89.840576,117.875221 86.092278,117.875221 82.343971,117.875221 
	C87.404648,117.442123 88.384628,113.810486 89.023018,109.815048 
	C89.181786,108.821449 89.685394,107.882965 90.209618,107.736450 
	C91.709656,108.156403 93.185440,108.730064 94.713684,108.971153 
	C104.056496,110.445030 112.643944,107.172173 121.158997,104.243690 
	C128.963806,101.559464 129.497345,92.933861 134.803375,87.348793 
	C121.853355,85.551788 112.290695,91.195190 102.855675,97.079819 
	C101.297226,98.051819 100.195618,99.756294 98.304291,100.474312 
	C98.526077,99.748726 98.747871,99.023148 98.969658,98.297562 
	C98.591690,97.880974 98.213722,97.464386 97.835754,97.047798 
	C91.591568,101.826607 85.269920,106.508698 79.133980,111.422684 
	C75.777931,114.110374 72.827087,117.298630 69.531929,120.068954 
	C63.923752,124.783897 58.018265,129.162842 52.638901,134.118484 
	C51.460838,135.203751 51.966591,138.116806 51.696903,140.188110 
	C53.228619,139.891266 54.758812,139.586212 56.292812,139.301682 
	C56.900627,139.188950 57.516903,139.121826 57.995644,139.053131 
	C56.766953,141.755112 54.429554,144.483932 54.737514,146.871506 
	C55.069656,149.446518 57.694561,151.870544 59.679886,154.028687 
	C60.729954,155.170166 62.546532,155.606491 64.771400,156.748322 
	C66.248871,158.369598 68.529778,160.872513 71.557495,164.194946 
	C72.193115,159.621002 72.638268,156.417725 73.181610,152.507828 
	C70.280228,153.781387 68.264473,154.666214 66.276497,155.538834 
	C64.374451,148.759262 65.713646,146.504471 72.893196,145.015442 
	C78.878548,143.774109 84.889519,142.656250 91.772858,141.311005 
	C86.551811,136.108047 83.477997,129.127991 74.681541,129.231949 
	C82.562439,125.816391 90.123383,122.976906 97.613983,119.962616 
	C101.090080,118.563805 104.897339,117.262871 104.959984,113.311623 
	C101.257835,114.615570 97.455650,115.954750 94.019073,116.526093 
M173.029816,252.670334 
	C177.823822,248.474213 182.529800,244.171967 187.431305,240.105408 
	C196.042938,232.960754 204.827591,226.024170 213.412292,218.847900 
	C215.222321,217.334839 217.340607,215.374985 217.858826,213.263229 
	C221.483765,198.491257 224.097672,183.556061 222.989548,168.224289 
	C222.629868,163.247742 223.384247,158.264969 219.522293,153.833984 
	C212.341476,145.595123 205.787033,136.813141 198.800522,128.399506 
	C197.504120,126.838280 195.401962,125.946136 192.598068,124.000031 
	C194.651093,133.774200 196.301804,142.100967 198.232864,150.362213 
	C198.551773,151.726608 199.970535,152.941071 201.097839,153.992294 
	C209.571198,161.893936 215.426453,170.824142 214.075821,183.192505 
	C213.344086,189.893188 212.605316,196.738434 213.205276,203.398148 
	C213.799973,209.999283 210.790924,214.144745 206.415833,217.882111 
	C193.491501,228.922562 180.463074,239.841171 167.869308,250.474823 
	C167.475555,248.252792 165.815125,244.600830 166.465698,241.421799 
	C168.060181,233.630203 170.782181,226.073471 172.873001,218.374039 
	C173.127533,217.436676 172.294800,216.204056 171.762207,214.429276 
	C168.721497,220.855652 166.221207,226.537552 163.386414,232.047379 
	C157.686768,243.125351 158.688080,255.126495 166.454620,264.152283 
	C168.652985,260.525177 170.807022,256.971191 173.029816,252.670334 
M93.009644,211.526184 
	C93.206940,215.534073 92.363594,219.504425 95.500252,223.177292 
	C106.935127,236.566879 117.786049,250.464523 129.472366,263.624268 
	C132.970032,267.562927 138.476715,269.717529 143.062988,272.689514 
	C143.460129,272.237823 143.857269,271.786163 144.254410,271.334473 
	C143.782013,270.551575 143.465027,269.590729 142.809174,269.017792 
	C140.479843,266.982910 137.635773,265.410522 135.701141,263.071899 
	C125.930435,251.260910 116.173119,239.425079 106.882088,227.238861 
	C103.857544,223.271881 100.868736,218.381058 100.314957,213.627213 
	C99.374001,205.549637 103.947006,199.362305 110.220161,194.095566 
	C114.303108,190.667664 117.642296,186.145294 120.595177,181.641495 
	C123.280830,177.545242 125.336830,172.940399 127.066658,168.333084 
	C130.745132,158.535629 137.990295,149.350540 132.997803,137.846664 
	C132.124756,135.834930 131.233765,133.830963 130.351059,131.823410 
	C129.793243,132.037384 129.235413,132.251358 128.677597,132.465347 
	C129.081665,134.847549 129.585373,137.218002 129.868439,139.614502 
	C130.405426,144.160812 131.245865,148.604752 128.075134,152.857254 
	C119.482498,164.381424 111.564445,176.430557 102.590401,187.640274 
	C97.046196,194.565659 92.252777,201.271667 93.009644,211.526184 
M226.487411,95.981102 
	C224.790787,94.251038 223.361343,92.077148 221.351562,90.867249 
	C212.332230,85.437531 203.309860,79.966743 193.955246,75.159424 
	C189.223999,72.728050 183.834229,70.438446 178.655777,70.229820 
	C162.865234,69.593651 147.027786,69.791031 131.220413,70.164696 
	C127.802383,70.245491 123.840851,71.670311 121.167320,73.786812 
	C115.791756,78.042397 111.211845,83.288818 106.142204,87.950859 
	C103.452309,90.424484 100.424301,92.530441 97.548920,94.802376 
	C97.888229,95.259842 98.227539,95.717308 98.566849,96.174782 
	C102.240021,94.086617 105.955261,92.068680 109.578926,89.897881 
	C123.717560,81.428001 137.818100,73.373314 155.485077,75.836075 
	C162.649017,76.834717 170.068436,76.000877 177.371597,76.000877 
	C177.357391,76.128494 177.343170,76.256111 177.328964,76.383728 
	C166.677979,77.609291 156.027008,78.834846 145.376022,80.060402 
	C147.129303,81.283386 148.967712,81.981575 150.787735,81.936478 
	C158.534561,81.744553 166.273987,81.239159 174.020920,81.075935 
	C175.664688,81.041298 177.377563,81.837173 178.974976,82.463615 
	C187.017105,85.617447 194.613007,90.374527 203.864731,89.049561 
	C204.897415,88.901672 206.186310,89.176392 207.089096,89.708565 
	C213.157379,93.285690 219.094193,97.088669 225.204361,100.590347 
	C227.391739,101.843895 229.941269,102.465553 232.325500,103.375610 
	C232.544968,102.972443 232.764450,102.569267 232.983917,102.166092 
	C231.002060,100.292107 229.020218,98.418114 226.487411,95.981102 
M187.720688,102.027931 
	C186.622986,102.873825 185.525284,103.719711 183.223770,105.493279 
	C189.345825,104.892487 194.347321,105.120827 198.861832,103.747864 
	C203.026489,102.481308 205.163055,104.339851 208.168259,106.298088 
	C216.091232,111.460793 222.155594,119.544868 232.087921,121.592003 
	C236.024506,122.403366 238.259232,125.540817 238.832413,128.998077 
	C239.977325,135.903656 240.923767,142.947586 240.856155,149.923767 
	C240.757294,160.122543 235.144379,168.128235 228.894272,175.731979 
	C227.475708,177.457794 226.648468,179.842453 226.103592,182.060104 
	C225.650314,183.904984 226.010757,185.949783 226.010757,188.218140 
	C226.799301,187.525558 227.716476,187.022568 228.200455,186.248657 
	C233.809753,177.279190 239.464417,168.334045 244.832428,159.220703 
	C246.084564,157.094879 246.975159,154.335602 246.883743,151.911087 
	C246.469604,140.926575 245.747162,129.949036 244.839493,118.993546 
	C244.722702,117.583969 243.137009,115.907654 241.789291,115.051239 
	C232.717178,109.286316 223.504730,103.742920 214.380417,98.059250 
	C208.830338,94.602028 203.344101,94.657272 197.652100,97.748512 
	C194.707657,99.347588 191.556259,100.565582 187.720688,102.027931 
M144.024887,223.924377 
	C146.604675,206.452820 152.739807,189.475739 151.756714,171.447510 
	C149.675003,173.958954 148.007446,176.523651 147.065308,179.331726 
	C142.398270,193.241821 137.936203,207.220566 133.371582,221.165207 
	C132.026932,225.273056 132.234344,229.392197 134.083115,233.150284 
	C140.681046,246.562225 147.503677,259.863647 154.241272,273.206909 
	C154.709152,273.187164 155.177032,273.167419 155.644928,273.147675 
	C155.980988,271.822479 156.891556,270.316559 156.542480,269.206909 
	C155.597580,266.203125 154.005829,263.410706 152.869537,260.457916 
	C148.440338,248.948074 141.207077,238.123688 144.024887,223.924377 
M86.026718,171.889175 
	C85.750084,172.910797 85.473457,173.932404 85.196831,174.954010 
	C84.189430,174.536407 83.041656,174.302185 82.204842,173.661713 
	C80.629036,172.455597 79.232536,171.015228 77.761497,169.672256 
	C77.170387,169.988281 76.579285,170.304306 75.988182,170.620346 
	C78.164024,179.382935 80.339859,188.145538 82.621414,197.333893 
	C87.849922,195.321014 92.131783,193.672562 96.413635,192.024124 
	C96.196335,191.311707 95.979042,190.599289 95.761742,189.886871 
	C92.640129,190.505936 89.518524,191.124985 86.232140,191.776718 
	C85.613533,189.135986 84.856781,186.508423 84.454727,183.827652 
	C84.331573,183.006500 84.968719,181.481461 85.620941,181.233261 
	C88.906059,179.983109 92.273911,178.900085 95.684013,178.041580 
	C99.760612,177.015274 103.182594,175.396179 105.256065,171.389404 
	C108.049820,165.990738 111.268990,160.811279 114.026108,155.395462 
	C114.568123,154.330795 114.348465,151.817154 113.607857,151.347656 
	C110.674881,149.488358 107.512573,147.811111 104.215103,146.751617 
	C100.017075,145.402786 95.605721,144.717896 91.286331,143.746780 
	C91.159584,144.284225 91.032829,144.821671 90.906082,145.359116 
	C96.756844,147.819733 102.607613,150.280334 108.728043,152.854355 
	C107.043114,155.910248 105.969864,157.856766 104.896614,159.803268 
	C104.630280,159.438156 104.363945,159.073044 104.097610,158.707932 
	C103.044968,158.988831 101.774612,158.985306 100.975243,159.597122 
	C96.037033,163.376602 91.204872,167.294662 86.026718,171.889175 
M168.013016,116.128990 
	C169.633728,113.550735 172.075790,111.146721 172.668976,108.350487 
	C173.424484,104.789207 173.726624,100.416595 172.261292,97.323715 
	C171.070923,94.811195 167.189301,93.654076 163.420731,94.900955 
	C159.940628,96.052399 156.000397,95.867302 152.578964,97.128517 
	C148.046539,98.799271 141.363022,97.289337 139.879990,105.300598 
	C143.319412,105.766838 146.737991,107.019852 149.820221,106.450867 
	C153.792969,105.717506 157.593872,103.723473 161.289108,101.906883 
	C165.177933,99.995125 167.894348,100.617043 169.529785,104.258125 
	C167.593719,109.855057 159.948135,112.746735 163.045364,120.016533 
	C165.321274,125.358536 165.024338,131.927795 171.034500,135.725525 
	C170.023544,129.477264 169.012573,123.228996 168.013016,116.128990 
M176.651978,50.999409 
	C183.034378,51.306942 189.415176,51.697395 195.801132,51.821362 
	C196.637695,51.837601 197.500778,50.487320 198.351562,49.769962 
	C197.561539,48.847263 196.851868,47.219093 195.968231,47.118458 
	C190.926239,46.544258 185.835510,46.411072 180.779892,45.932102 
	C179.817871,45.840958 178.939072,44.871128 178.021881,44.306713 
	C178.899109,43.872028 179.767654,43.083179 180.655029,43.061363 
	C185.619522,42.939354 190.588562,43.002659 195.556061,43.002659 
	C195.864532,42.640587 196.172989,42.278515 196.481461,41.916443 
	C195.484406,40.900723 194.592911,39.161896 193.471481,38.998184 
	C189.280182,38.386330 185.004044,38.380352 180.782425,37.932865 
	C179.816071,37.830425 178.940292,36.873394 178.022827,36.309669 
	C178.895584,35.871593 179.759659,35.076096 180.642548,35.054600 
	C185.626205,34.933277 190.619446,34.861656 195.599167,35.047829 
	C198.800446,35.167515 199.782425,34.141262 198.310211,30.584251 
	C189.966751,30.584251 181.520889,30.584251 173.000427,30.584251 
	C173.000427,36.545456 172.877319,42.367546 173.120743,48.174271 
	C173.161636,49.150135 174.787872,50.059536 176.651978,50.999409 
M159.154510,33.998924 
	C160.657043,34.255337 162.159561,34.511749 163.811127,34.793598 
	C163.811127,33.168400 163.811127,31.751713 163.811127,29.998724 
	C157.323914,29.998724 151.014526,30.090998 144.709747,29.960691 
	C141.444626,29.893209 138.875427,30.692934 138.057098,34.152328 
	C136.534943,40.587029 138.082596,48.190868 141.072754,49.573830 
	C141.511475,49.776745 141.999344,49.940002 142.476791,49.982121 
	C146.539108,50.340504 150.601685,50.913757 154.669067,50.956089 
	C166.946609,51.083866 166.947464,51.001984 165.606430,38.206512 
	C160.544434,38.206512 155.459274,38.206512 150.028854,38.206512 
	C150.139114,39.569035 150.234161,40.743511 150.345413,42.118294 
	C154.014099,42.118294 157.308975,42.118294 160.976440,42.118294 
	C160.870178,43.549503 160.783295,44.719982 160.712906,45.668041 
	C154.553757,45.668041 148.807098,45.668041 143.000732,45.668041 
	C143.000732,43.157669 143.180222,40.975704 142.960770,38.834637 
	C142.584412,35.162762 143.916840,33.643436 147.725769,33.943302 
	C151.203995,34.217133 154.720886,33.999680 159.154510,33.998924 
M75.617897,40.941772 
	C75.408783,39.677628 75.199669,38.413479 74.965324,36.996792 
	C81.695190,36.634445 87.609955,36.452736 93.485901,35.875732 
	C94.565605,35.769711 95.487816,34.059856 96.482727,33.090298 
	C96.135971,32.619255 95.789215,32.148212 95.442467,31.677166 
	C87.113609,32.145531 78.784760,32.613895 70.301620,33.090935 
	C70.301620,40.175964 70.301620,47.043163 70.301620,54.129253 
	C74.851799,53.735344 79.085220,53.414471 83.308281,52.990387 
	C87.500572,52.569393 91.682426,52.044525 95.868858,51.565212 
	C96.104790,51.159313 96.340721,50.753414 96.576660,50.347515 
	C95.392029,49.565742 94.194160,48.095486 93.025002,48.117981 
	C87.054756,48.232872 81.091934,48.733189 75.126511,49.098679 
	C75.001198,48.416729 74.875877,47.734776 74.750565,47.052822 
	C80.367851,43.168591 87.300491,44.381001 94.034470,43.834496 
	C93.870071,42.349476 93.740929,41.182922 93.555969,39.512218 
	C87.607483,40.029789 82.065201,40.512016 75.617897,40.941772 
M50.613491,50.002110 
	C53.836922,49.637806 57.174095,49.678188 60.256432,48.811874 
	C64.595909,47.592232 62.170246,43.462166 63.168159,40.795898 
	C64.894524,36.183323 62.802517,34.950386 58.976025,35.045181 
	C52.256042,35.211658 45.528461,35.513954 38.842628,36.159035 
	C37.790535,36.260544 36.200386,38.420025 36.127319,39.700340 
	C35.825542,44.988300 36.000225,50.304203 36.039574,55.609543 
	C36.042915,56.059975 36.340023,56.508232 36.542683,57.075035 
	C38.025425,56.957878 39.442608,56.845901 40.833050,56.736038 
	C40.983444,54.661205 41.109859,52.917210 41.211777,51.511158 
	C44.313671,50.975594 47.014099,50.509346 50.613491,50.002110 
M205.998276,42.437866 
	C206.001419,44.098812 205.489761,46.005093 206.135391,47.359859 
	C206.980972,49.134216 208.516663,51.442036 210.148376,51.818779 
	C215.173203,52.978928 220.387512,53.310570 225.523468,53.999451 
	C230.864700,54.715870 233.398560,52.268543 233.051163,47.026501 
	C232.877884,44.412045 232.762772,41.632042 233.452240,39.158531 
	C234.597198,35.051018 232.028336,33.505913 229.205460,33.144665 
	C223.203140,32.376537 217.107834,32.331566 211.049988,32.002216 
	C207.523544,31.810493 205.839462,33.472614 205.988632,37.024033 
	C206.051315,38.516262 205.998672,40.013332 205.998276,42.437866 
M118.444290,51.001324 
	C120.275970,51.001263 122.107727,51.011955 123.939316,50.999107 
	C129.188110,50.962288 130.974426,49.179153 130.993958,43.913570 
	C131.009399,39.750908 130.999496,35.587952 130.956833,31.425579 
	C130.952225,30.975016 130.654770,30.527454 130.441849,29.935961 
	C128.981995,30.037197 127.575607,30.134726 125.797363,30.258041 
	C125.797363,35.685547 125.797363,40.763264 125.797363,45.494720 
	C120.984055,46.027950 116.605492,46.514847 112.226456,46.997498 
	C109.401146,47.308899 107.809662,46.436256 107.958008,43.194515 
	C108.138794,39.243893 108.000999,35.278690 108.000999,31.193708 
	C106.179176,31.193708 104.777306,31.193708 103.001015,31.193708 
	C103.001015,35.836327 102.867561,40.303432 103.039223,44.758781 
	C103.205055,49.063061 104.843445,51.881329 109.988121,51.065281 
	C112.424446,50.678833 114.973068,51.000313 118.444290,51.001324 
M251.395950,35.000885 
	C247.367783,34.778820 243.339630,34.556755 239.254242,34.331535 
	C238.330002,37.948425 239.826782,39.067013 243.316147,39.058739 
	C249.996826,39.042896 249.997314,39.186001 249.998001,45.857315 
	C249.998337,49.154018 249.998047,52.450722 249.998047,55.796219 
	C251.851471,55.796219 253.275375,55.796219 254.240387,55.796219 
	C254.511353,50.394093 254.771576,45.205872 255.016068,40.331608 
	C259.035034,40.630527 262.380249,40.879333 265.749695,41.129948 
	C265.749695,39.078857 265.749695,37.675304 265.749695,36.401039 
	C261.105835,35.919426 256.722015,35.464779 251.395950,35.000885 
z"/>
<path fill="#FDFDFD" opacity="1.000000" stroke="none" 
	d="
M172.995438,253.043777 
	C170.807022,256.971191 168.652985,260.525177 166.454620,264.152283 
	C158.688080,255.126495 157.686768,243.125351 163.386414,232.047379 
	C166.221207,226.537552 168.721497,220.855652 171.762207,214.429276 
	C172.294800,216.204056 173.127533,217.436676 172.873001,218.374039 
	C170.782181,226.073471 168.060181,233.630203 166.465698,241.421799 
	C165.815125,244.600830 167.475555,248.252792 167.869308,250.474823 
	C180.463074,239.841171 193.491501,228.922562 206.415833,217.882111 
	C210.790924,214.144745 213.799973,209.999283 213.205276,203.398148 
	C212.605316,196.738434 213.344086,189.893188 214.075821,183.192505 
	C215.426453,170.824142 209.571198,161.893936 201.097839,153.992294 
	C199.970535,152.941071 198.551773,151.726608 198.232864,150.362213 
	C196.301804,142.100967 194.651093,133.774200 192.598068,124.000031 
	C195.401962,125.946136 197.504120,126.838280 198.800522,128.399506 
	C205.787033,136.813141 212.341476,145.595123 219.522293,153.833984 
	C223.384247,158.264969 222.629868,163.247742 222.989548,168.224289 
	C224.097672,183.556061 221.483765,198.491257 217.858826,213.263229 
	C217.340607,215.374985 215.222321,217.334839 213.412292,218.847900 
	C204.827591,226.024170 196.042938,232.960754 187.431305,240.105408 
	C182.529800,244.171967 177.823822,248.474213 172.995438,253.043777 
z"/>
<path fill="#FEFEFE" opacity="1.000000" stroke="none" 
	d="
M93.007057,211.055267 
	C92.252777,201.271667 97.046196,194.565659 102.590401,187.640274 
	C111.564445,176.430557 119.482498,164.381424 128.075134,152.857254 
	C131.245865,148.604752 130.405426,144.160812 129.868439,139.614502 
	C129.585373,137.218002 129.081665,134.847549 128.677597,132.465347 
	C129.235413,132.251358 129.793243,132.037384 130.351059,131.823410 
	C131.233765,133.830963 132.124756,135.834930 132.997803,137.846664 
	C137.990295,149.350540 130.745132,158.535629 127.066658,168.333084 
	C125.336830,172.940399 123.280830,177.545242 120.595177,181.641495 
	C117.642296,186.145294 114.303108,190.667664 110.220161,194.095566 
	C103.947006,199.362305 99.374001,205.549637 100.314957,213.627213 
	C100.868736,218.381058 103.857544,223.271881 106.882088,227.238861 
	C116.173119,239.425079 125.930435,251.260910 135.701141,263.071899 
	C137.635773,265.410522 140.479843,266.982910 142.809174,269.017792 
	C143.465027,269.590729 143.782013,270.551575 144.254410,271.334473 
	C143.857269,271.786163 143.460129,272.237823 143.062988,272.689514 
	C138.476715,269.717529 132.970032,267.562927 129.472366,263.624268 
	C117.786049,250.464523 106.935127,236.566879 95.500252,223.177292 
	C92.363594,219.504425 93.206940,215.534073 93.007057,211.055267 
z"/>
<path fill="#FEFEFE" opacity="1.000000" stroke="none" 
	d="
M226.762878,96.262619 
	C229.020218,98.418114 231.002060,100.292107 232.983917,102.166092 
	C232.764450,102.569267 232.544968,102.972443 232.325500,103.375610 
	C229.941269,102.465553 227.391739,101.843895 225.204361,100.590347 
	C219.094193,97.088669 213.157379,93.285690 207.089096,89.708565 
	C206.186310,89.176392 204.897415,88.901672 203.864731,89.049561 
	C194.613007,90.374527 187.017105,85.617447 178.974976,82.463615 
	C177.377563,81.837173 175.664688,81.041298 174.020920,81.075935 
	C166.273987,81.239159 158.534561,81.744553 150.787735,81.936478 
	C148.967712,81.981575 147.129303,81.283386 145.376022,80.060402 
	C156.027008,78.834846 166.677979,77.609291 177.328964,76.383728 
	C177.343170,76.256111 177.357391,76.128494 177.371597,76.000877 
	C170.068436,76.000877 162.649017,76.834717 155.485077,75.836075 
	C137.818100,73.373314 123.717560,81.428001 109.578926,89.897881 
	C105.955261,92.068680 102.240021,94.086617 98.566849,96.174782 
	C98.227539,95.717308 97.888229,95.259842 97.548920,94.802376 
	C100.424301,92.530441 103.452309,90.424484 106.142204,87.950859 
	C111.211845,83.288818 115.791756,78.042397 121.167320,73.786812 
	C123.840851,71.670311 127.802383,70.245491 131.220413,70.164696 
	C147.027786,69.791031 162.865234,69.593651 178.655777,70.229820 
	C183.834229,70.438446 189.223999,72.728050 193.955246,75.159424 
	C203.309860,79.966743 212.332230,85.437531 221.351562,90.867249 
	C223.361343,92.077148 224.790787,94.251038 226.762878,96.262619 
z"/>
<path fill="#FDFEFE" opacity="1.000000" stroke="none" 
	d="
M90.030502,106.919144 
	C89.685394,107.882965 89.181786,108.821449 89.023018,109.815048 
	C88.384628,113.810486 87.404648,117.442123 82.343971,117.875221 
	C86.092278,117.875221 89.840576,117.875221 93.662018,117.548233 
	C93.735146,117.221237 93.653473,117.293930 93.653473,117.293930 
	C97.455650,115.954750 101.257835,114.615570 104.959984,113.311623 
	C104.897339,117.262871 101.090080,118.563805 97.613983,119.962616 
	C90.123383,122.976906 82.562439,125.816391 74.681541,129.231949 
	C83.477997,129.127991 86.551811,136.108047 91.772858,141.311005 
	C84.889519,142.656250 78.878548,143.774109 72.893196,145.015442 
	C65.713646,146.504471 64.374451,148.759262 66.276497,155.538834 
	C68.264473,154.666214 70.280228,153.781387 73.181610,152.507828 
	C72.638268,156.417725 72.193115,159.621002 71.557495,164.194946 
	C68.529778,160.872513 66.248871,158.369598 64.771400,156.748322 
	C62.546532,155.606491 60.729954,155.170166 59.679886,154.028687 
	C57.694561,151.870544 55.069656,149.446518 54.737514,146.871506 
	C54.429554,144.483932 56.766953,141.755112 57.995644,139.053131 
	C57.516903,139.121826 56.900627,139.188950 56.292812,139.301682 
	C54.758812,139.586212 53.228619,139.891266 51.696899,140.188110 
	C51.966591,138.116806 51.460838,135.203751 52.638901,134.118484 
	C58.018265,129.162842 63.923752,124.783897 69.531929,120.068954 
	C72.827087,117.298630 75.777931,114.110374 79.133980,111.422684 
	C85.269920,106.508698 91.591568,101.826607 97.835754,97.047798 
	C98.213722,97.464386 98.591690,97.880974 98.969658,98.297562 
	C98.747871,99.023148 98.526077,99.748726 98.638229,100.755173 
	C98.972160,101.036034 99.078812,100.972542 98.784454,100.675217 
	C95.632988,102.607910 92.775879,104.837944 89.947708,107.031525 
	C89.976639,106.995064 90.030502,106.919144 90.030502,106.919144 
M60.371059,136.179199 
	C60.280174,136.763916 60.189285,137.348633 60.098400,137.933350 
	C60.381641,137.537354 60.664879,137.141373 60.371059,136.179199 
z"/>
<path fill="#FEFEFE" opacity="1.000000" stroke="none" 
	d="
M188.109528,101.991837 
	C191.556259,100.565582 194.707657,99.347588 197.652100,97.748512 
	C203.344101,94.657272 208.830338,94.602028 214.380417,98.059250 
	C223.504730,103.742920 232.717178,109.286316 241.789291,115.051239 
	C243.137009,115.907654 244.722702,117.583969 244.839493,118.993546 
	C245.747162,129.949036 246.469604,140.926575 246.883743,151.911087 
	C246.975159,154.335602 246.084564,157.094879 244.832428,159.220703 
	C239.464417,168.334045 233.809753,177.279190 228.200455,186.248657 
	C227.716476,187.022568 226.799301,187.525558 226.010757,188.218140 
	C226.010757,185.949783 225.650314,183.904984 226.103592,182.060104 
	C226.648468,179.842453 227.475708,177.457794 228.894272,175.731979 
	C235.144379,168.128235 240.757294,160.122543 240.856155,149.923767 
	C240.923767,142.947586 239.977325,135.903656 238.832413,128.998077 
	C238.259232,125.540817 236.024506,122.403366 232.087921,121.592003 
	C222.155594,119.544868 216.091232,111.460793 208.168259,106.298088 
	C205.163055,104.339851 203.026489,102.481308 198.861832,103.747864 
	C194.347321,105.120827 189.345825,104.892487 183.223770,105.493279 
	C185.525284,103.719711 186.622986,102.873825 188.109528,101.991837 
z"/>
<path fill="#FEFEFE" opacity="1.000000" stroke="none" 
	d="
M144.012787,224.369400 
	C141.207077,238.123688 148.440338,248.948074 152.869537,260.457916 
	C154.005829,263.410706 155.597580,266.203125 156.542480,269.206909 
	C156.891556,270.316559 155.980988,271.822479 155.644928,273.147675 
	C155.177032,273.167419 154.709152,273.187164 154.241272,273.206909 
	C147.503677,259.863647 140.681046,246.562225 134.083115,233.150284 
	C132.234344,229.392197 132.026932,225.273056 133.371582,221.165207 
	C137.936203,207.220566 142.398270,193.241821 147.065308,179.331726 
	C148.007446,176.523651 149.675003,173.958954 151.756714,171.447510 
	C152.739807,189.475739 146.604675,206.452820 144.012787,224.369400 
z"/>
<path fill="#FDFDFD" opacity="1.000000" stroke="none" 
	d="
M86.182098,171.527924 
	C91.204872,167.294662 96.037033,163.376602 100.975243,159.597122 
	C101.774612,158.985306 103.044968,158.988831 104.097610,158.707932 
	C104.363945,159.073044 104.630280,159.438156 104.896614,159.803268 
	C105.969864,157.856766 107.043114,155.910248 108.728043,152.854355 
	C102.607613,150.280334 96.756844,147.819733 90.906082,145.359116 
	C91.032829,144.821671 91.159584,144.284225 91.286331,143.746780 
	C95.605721,144.717896 100.017075,145.402786 104.215103,146.751617 
	C107.512573,147.811111 110.674881,149.488358 113.607857,151.347656 
	C114.348465,151.817154 114.568123,154.330795 114.026108,155.395462 
	C111.268990,160.811279 108.049820,165.990738 105.256065,171.389404 
	C103.182594,175.396179 99.760612,177.015274 95.684013,178.041580 
	C92.273911,178.900085 88.906059,179.983109 85.620941,181.233261 
	C84.968719,181.481461 84.331573,183.006500 84.454727,183.827652 
	C84.856781,186.508423 85.613533,189.135986 86.232140,191.776718 
	C89.518524,191.124985 92.640129,190.505936 95.761742,189.886871 
	C95.979042,190.599289 96.196335,191.311707 96.413635,192.024124 
	C92.131783,193.672562 87.849922,195.321014 82.621414,197.333893 
	C80.339859,188.145538 78.164024,179.382935 75.988182,170.620346 
	C76.579285,170.304306 77.170387,169.988281 77.761497,169.672256 
	C79.232536,171.015228 80.629036,172.455597 82.204842,173.661713 
	C83.041656,174.302185 84.189430,174.536407 85.196831,174.954010 
	C85.473457,173.932404 85.750084,172.910797 86.182098,171.527924 
z"/>
<path fill="#FEFEFE" opacity="1.000000" stroke="none" 
	d="
M98.927521,101.079147 
	C100.195618,99.756294 101.297226,98.051819 102.855675,97.079819 
	C112.290695,91.195190 121.853355,85.551788 134.803375,87.348793 
	C129.497345,92.933861 128.963806,101.559464 121.158997,104.243690 
	C112.643944,107.172173 104.056496,110.445030 94.713684,108.971153 
	C93.185440,108.730064 91.709656,108.156403 90.120056,107.327797 
	C90.030502,106.919144 89.976639,106.995064 90.346130,106.999420 
	C94.686897,106.634537 97.805611,105.083076 99.078812,100.972542 
	C99.078812,100.972542 98.972160,101.036034 98.927521,101.079147 
z"/>
<path fill="#FDFDFD" opacity="1.000000" stroke="none" 
	d="
M168.007324,116.554863 
	C169.012573,123.228996 170.023544,129.477264 171.034500,135.725525 
	C165.024338,131.927795 165.321274,125.358536 163.045364,120.016533 
	C159.948135,112.746735 167.593719,109.855057 169.529785,104.258125 
	C167.894348,100.617043 165.177933,99.995125 161.289108,101.906883 
	C157.593872,103.723473 153.792969,105.717506 149.820221,106.450867 
	C146.737991,107.019852 143.319412,105.766838 139.879990,105.300598 
	C141.363022,97.289337 148.046539,98.799271 152.578964,97.128517 
	C156.000397,95.867302 159.940628,96.052399 163.420731,94.900955 
	C167.189301,93.654076 171.070923,94.811195 172.261292,97.323715 
	C173.726624,100.416595 173.424484,104.789207 172.668976,108.350487 
	C172.075790,111.146721 169.633728,113.550735 168.007324,116.554863 
z"/>
<path fill="#FEFEFE" opacity="1.000000" stroke="none" 
	d="
M176.166779,50.999527 
	C174.787872,50.059536 173.161636,49.150135 173.120743,48.174271 
	C172.877319,42.367546 173.000427,36.545456 173.000427,30.584251 
	C181.520889,30.584251 189.966751,30.584251 198.310211,30.584251 
	C199.782425,34.141262 198.800446,35.167515 195.599167,35.047829 
	C190.619446,34.861656 185.626205,34.933277 180.642548,35.054600 
	C179.759659,35.076096 178.895584,35.871593 178.022827,36.309669 
	C178.940292,36.873394 179.816071,37.830425 180.782425,37.932865 
	C185.004044,38.380352 189.280182,38.386330 193.471481,38.998184 
	C194.592911,39.161896 195.484406,40.900723 196.481461,41.916443 
	C196.172989,42.278515 195.864532,42.640587 195.556061,43.002659 
	C190.588562,43.002659 185.619522,42.939354 180.655029,43.061363 
	C179.767654,43.083179 178.899109,43.872028 178.021881,44.306713 
	C178.939072,44.871128 179.817871,45.840958 180.779892,45.932102 
	C185.835510,46.411072 190.926239,46.544258 195.968231,47.118458 
	C196.851868,47.219093 197.561539,48.847263 198.351562,49.769966 
	C197.500778,50.487320 196.637695,51.837601 195.801132,51.821362 
	C189.415176,51.697395 183.034378,51.306942 176.166779,50.999527 
z"/>
<path fill="#FEFEFE" opacity="1.000000" stroke="none" 
	d="
M158.687622,33.998833 
	C154.720886,33.999680 151.203995,34.217133 147.725769,33.943302 
	C143.916840,33.643436 142.584412,35.162762 142.960770,38.834637 
	C143.180222,40.975704 143.000732,43.157669 143.000732,45.668041 
	C148.807098,45.668041 154.553757,45.668041 160.712906,45.668041 
	C160.783295,44.719982 160.870178,43.549503 160.976440,42.118294 
	C157.308975,42.118294 154.014099,42.118294 150.345413,42.118294 
	C150.234161,40.743511 150.139114,39.569035 150.028854,38.206512 
	C155.459274,38.206512 160.544434,38.206512 165.606430,38.206512 
	C166.947464,51.001984 166.946609,51.083866 154.669067,50.956089 
	C150.601685,50.913757 146.539108,50.340504 142.476791,49.982121 
	C141.999344,49.940002 141.511475,49.776745 141.072754,49.573830 
	C138.082596,48.190868 136.534943,40.587029 138.057098,34.152328 
	C138.875427,30.692934 141.444626,29.893209 144.709747,29.960691 
	C151.014526,30.090998 157.323914,29.998724 163.811127,29.998724 
	C163.811127,31.751713 163.811127,33.168400 163.811127,34.793598 
	C162.159561,34.511749 160.657043,34.255337 158.687622,33.998833 
z"/>
<path fill="#FDFDFD" opacity="1.000000" stroke="none" 
	d="
M76.070404,40.968010 
	C82.065201,40.512016 87.607483,40.029789 93.555969,39.512218 
	C93.740929,41.182922 93.870071,42.349476 94.034470,43.834496 
	C87.300491,44.381001 80.367851,43.168591 74.750565,47.052822 
	C74.875877,47.734776 75.001198,48.416729 75.126511,49.098679 
	C81.091934,48.733189 87.054756,48.232872 93.025002,48.117981 
	C94.194160,48.095486 95.392029,49.565742 96.576660,50.347515 
	C96.340721,50.753414 96.104790,51.159313 95.868858,51.565212 
	C91.682426,52.044525 87.500572,52.569393 83.308281,52.990387 
	C79.085220,53.414471 74.851799,53.735344 70.301620,54.129253 
	C70.301620,47.043163 70.301620,40.175964 70.301620,33.090935 
	C78.784760,32.613895 87.113609,32.145531 95.442467,31.677166 
	C95.789215,32.148212 96.135971,32.619255 96.482727,33.090298 
	C95.487816,34.059856 94.565605,35.769711 93.485901,35.875732 
	C87.609955,36.452736 81.695190,36.634445 74.965324,36.996792 
	C75.199669,38.413479 75.408783,39.677628 76.070404,40.968010 
z"/>
<path fill="#FDFDFD" opacity="1.000000" stroke="none" 
	d="
M50.164009,50.022602 
	C47.014099,50.509346 44.313671,50.975594 41.211777,51.511158 
	C41.109859,52.917210 40.983444,54.661205 40.833050,56.736038 
	C39.442608,56.845901 38.025425,56.957878 36.542683,57.075035 
	C36.340023,56.508232 36.042915,56.059975 36.039574,55.609543 
	C36.000225,50.304203 35.825542,44.988300 36.127319,39.700340 
	C36.200386,38.420025 37.790535,36.260544 38.842628,36.159035 
	C45.528461,35.513954 52.256042,35.211658 58.976025,35.045181 
	C62.802517,34.950386 64.894524,36.183323 63.168159,40.795898 
	C62.170246,43.462166 64.595909,47.592232 60.256432,48.811874 
	C57.174095,49.678188 53.836922,49.637806 50.164009,50.022602 
M58.271191,39.048038 
	C52.528240,39.732052 46.785290,40.416069 40.877510,41.119717 
	C41.045822,43.098133 41.164013,44.487373 41.292736,46.000462 
	C44.150745,46.000462 46.635902,46.000549 49.121063,46.000393 
	C49.620487,46.000362 50.122314,46.031399 50.618977,45.994102 
	C58.533897,45.399666 58.917404,45.104099 58.271191,39.048038 
z"/>
<path fill="#FEFEFE" opacity="1.000000" stroke="none" 
	d="
M205.998367,41.973034 
	C205.998672,40.013332 206.051315,38.516262 205.988632,37.024033 
	C205.839462,33.472614 207.523544,31.810493 211.049988,32.002216 
	C217.107834,32.331566 223.203140,32.376537 229.205460,33.144665 
	C232.028336,33.505913 234.597198,35.051018 233.452240,39.158531 
	C232.762772,41.632042 232.877884,44.412045 233.051163,47.026501 
	C233.398560,52.268543 230.864700,54.715870 225.523468,53.999451 
	C220.387512,53.310570 215.173203,52.978928 210.148376,51.818779 
	C208.516663,51.442036 206.980972,49.134216 206.135391,47.359859 
	C205.489761,46.005093 206.001419,44.098812 205.998367,41.973034 
M211.040253,47.538380 
	C216.956024,48.151325 222.871796,48.764267 228.998062,49.399021 
	C228.998062,46.354580 228.790375,44.341961 229.040894,42.388096 
	C229.577545,38.202602 227.573334,36.857040 223.738159,36.950531 
	C222.321136,36.985073 220.876755,36.519875 219.468399,36.183960 
	C211.800308,34.354996 209.908325,35.793262 210.006500,43.497391 
	C210.021011,44.635548 210.255707,45.770901 211.040253,47.538380 
z"/>
<path fill="#FEFEFE" opacity="1.000000" stroke="none" 
	d="
M117.957550,51.001194 
	C114.973068,51.000313 112.424446,50.678833 109.988121,51.065281 
	C104.843445,51.881329 103.205055,49.063061 103.039223,44.758781 
	C102.867561,40.303432 103.001015,35.836327 103.001015,31.193708 
	C104.777306,31.193708 106.179176,31.193708 108.000999,31.193708 
	C108.000999,35.278690 108.138794,39.243893 107.958008,43.194515 
	C107.809662,46.436256 109.401146,47.308899 112.226456,46.997498 
	C116.605492,46.514847 120.984055,46.027950 125.797363,45.494720 
	C125.797363,40.763264 125.797363,35.685547 125.797363,30.258041 
	C127.575607,30.134726 128.981995,30.037197 130.441849,29.935961 
	C130.654770,30.527454 130.952225,30.975016 130.956833,31.425579 
	C130.999496,35.587952 131.009399,39.750908 130.993958,43.913570 
	C130.974426,49.179153 129.188110,50.962288 123.939316,50.999107 
	C122.107727,51.011955 120.275970,51.001263 117.957550,51.001194 
z"/>
<path fill="#FDFDFD" opacity="1.000000" stroke="none" 
	d="
M251.867065,35.005508 
	C256.722015,35.464779 261.105835,35.919426 265.749695,36.401039 
	C265.749695,37.675304 265.749695,39.078857 265.749695,41.129948 
	C262.380249,40.879333 259.035034,40.630527 255.016068,40.331608 
	C254.771576,45.205872 254.511353,50.394093 254.240387,55.796219 
	C253.275375,55.796219 251.851471,55.796219 249.998047,55.796219 
	C249.998047,52.450722 249.998337,49.154018 249.998001,45.857315 
	C249.997314,39.186001 249.996826,39.042896 243.316147,39.058739 
	C239.826782,39.067013 238.330002,37.948425 239.254242,34.331535 
	C243.339630,34.556755 247.367783,34.778820 251.867065,35.005508 
z"/>
<path fill="#FDFDFD" opacity="1.000000" stroke="none" 
	d="
M93.771790,117.180672 
	C93.341011,115.789642 92.172752,114.152405 92.579048,113.159447 
	C93.117775,111.842850 94.802948,110.876755 96.191071,110.117775 
	C96.500824,109.948395 98.035530,111.127884 98.302879,111.922882 
	C99.637802,115.892456 95.955948,115.440979 93.836273,116.910011 
	C93.653473,117.293930 93.735146,117.221237 93.771790,117.180672 
z"/>
<path fill="#000000" opacity="1.000000" stroke="none" 
	d="
M98.784454,100.675217 
	C97.805611,105.083076 94.686897,106.634537 90.317192,107.035881 
	C92.775879,104.837944 95.632988,102.607910 98.784454,100.675217 
z"/>
<path fill="#000000" opacity="1.000000" stroke="none" 
	d="
M60.659592,136.462280 
	C60.664879,137.141373 60.381641,137.537354 60.098400,137.933350 
	C60.189285,137.348633 60.280174,136.763916 60.659592,136.462280 
z"/>
<path fill="#000000" opacity="1.000000" stroke="none" 
	d="
M58.605312,39.340424 
	C58.917404,45.104099 58.533897,45.399666 50.618977,45.994102 
	C50.122314,46.031399 49.620487,46.000362 49.121063,46.000393 
	C46.635902,46.000549 44.150745,46.000462 41.292736,46.000462 
	C41.164013,44.487373 41.045822,43.098133 40.877510,41.119717 
	C46.785290,40.416069 52.528240,39.732052 58.605312,39.340424 
z"/>
<path fill="#000000" opacity="1.000000" stroke="none" 
	d="
M210.714386,47.222965 
	C210.255707,45.770901 210.021011,44.635548 210.006500,43.497391 
	C209.908325,35.793262 211.800308,34.354996 219.468399,36.183960 
	C220.876755,36.519875 222.321136,36.985073 223.738159,36.950531 
	C227.573334,36.857040 229.577545,38.202602 229.040894,42.388096 
	C228.790375,44.341961 228.998062,46.354580 228.998062,49.399021 
	C222.871796,48.764267 216.956024,48.151325 210.714386,47.222965 
z"/>
</svg>